<svg version="1" xmlns="http://www.w3.org/2000/svg" width="4000" height="4000" viewBox="0 0 3000.000000 3000.000000"><path d="M1443.8.5c-.2.2-8.3.6-18.1 1-9.8.3-19.9.8-22.5 1-2.6.2-9.6.6-15.7 1-6 .3-12.3.8-14 1-1.6.3-6.8.7-11.5 1-4.7.3-10.3.8-12.5 1-2.2.2-6.9.7-10.5 1-3.6.3-7.6.8-9 1-1.4.2-5.2.6-8.5 1-3.3.3-7.1.8-8.5 1-1.4.2-7 .9-12.5 1.5s-14 1.8-19 2.5c-4.9.8-11 1.6-13.5 1.9-2.5.4-5.6.8-7 1.1-1.4.2-9.5 1.6-18 3s-16.8 2.8-18.5 3.1c-3.3.5-14.7 2.7-26.5 5-4.1.8-12.5 2.6-18.7 3.9-6.1 1.4-12.2 2.7-13.5 2.9-1.3.3-3.2.7-4.3 1-1.1.2-6.2 1.4-11.3 2.5-14 3.2-53.3 13.3-65.2 16.8-3 .9-6.1 1.8-6.8 1.9-3.9.7-48.8 14.9-66.7 21.1-8.8 3-16.4 5.6-17 5.7-.5.2-1.7.6-2.5.9-.8.3-9.1 3.3-18.5 6.7-46.9 17.2-100.1 40.2-146.5 63.4-30.3 15.2-39.2 19.9-73 38.8-2.5 1.4-10.8 6.2-18.5 10.8-7.7 4.6-15.1 8.9-16.5 9.7-1.4.8-3.7 2.2-5.1 3.1-1.5.9-5.3 3.3-8.5 5.3-28.3 17.3-88.8 58.5-105.9 72.2-.5.4-8.4 6.4-17.5 13.4-20.6 15.8-57.8 45.9-61.5 49.9-.5.5-3.9 3.5-7.5 6.5-3.5 3-7.1 6.1-8 6.9-.9.8-4.9 4.4-9 8-34.6 30.5-84.2 80.3-119 119.4-2.5 2.8-4.7 5.3-5 5.6-2.8 2.7-38.1 44.8-46.5 55.4-9.7 12.3-12.8 16.3-14.2 18-4.7 5.7-23.8 31.5-35.3 47.6-12.4 17.3-46 67.3-46 68.4 0 .2-1.7 3.1-3.9 6.3-10.5 15.8-37.7 62.8-52.6 90.8-18.8 35.3-43.9 88.2-58.5 123.5-2.8 6.9-5.7 13.8-6.5 15.5-3.5 8.1-17.9 46.4-25.6 68.5-9.1 26-23.1 69.8-24.5 76.9-.3 1.4-.7 2.8-.9 3.1-1.6 2.5-21.6 81.7-24 94.8-.3 1.5-.7 3.8-1 5.2-1 4.4-2.6 12.4-3.1 15-.2 1.4-1.3 7-2.4 12.5-1.1 5.5-2.2 11.3-2.5 13-.2 1.6-.7 4.1-1 5.5-.5 2.5-3.3 19-4.1 24.5-.3 1.6-.9 5.5-1.4 8.5-.5 3-1.2 7.7-1.5 10.5-.3 2.7-.8 5.7-1 6.5-.2.8-.7 3.5-1 6-.7 5.8-1.3 10.5-2.1 15.5-.3 2.2-.7 5.6-.9 7.5-.2 1.9-.6 5.3-.9 7.5-1.1 8-2 16.3-3.1 28-.3 3.3-.7 8-1 10.5-.3 2.5-.8 7.6-1 11.5-.3 3.8-.7 9-1 11.5-.2 2.5-.7 9.4-1 15.5-.3 6-.8 12.8-1 15-2.6 25.5-2.6 154.2 0 173 .2 1.6.7 7.9 1 14 .2 6 .7 13.2 1 16 .2 2.7.7 8.1 1 12 .3 3.8.7 8.8 1 11 .2 2.2.7 6.7.9 10 .3 3.3.8 7.8 1 10 .3 2.2.8 6.5 1.1 9.5 1.3 12.2 5 40.9 6.1 47.5.7 4.4 1.1 7.1 2.4 16 .7 4.4 1.4 8.9 1.6 10 .2 1.1 1.3 7.4 2.4 14 1.1 6.6 2.2 13.1 2.5 14.5.3 1.4.8 3.8 1.1 5.5.3 1.6 1.6 8.6 3 15.5s2.7 13.3 2.9 14.3c.3 1 .6 2.6.9 3.5.3.9.8 3 1 4.7 1 5.7 4.7 22.9 5.1 23.5.2.4.6 2 .9 3.6 1.8 9.9 13.1 52.6 20.3 76.9 8.5 28.5 10.2 34.1 14.8 47.9 20.3 60.6 41 112.7 66.5 167.1 10.4 22.1 30.9 62.4 40.7 80 1.9 3.3 4.1 7.3 4.9 9 .8 1.6 2.1 3.9 2.7 5 .7 1.1 3 5.1 5.2 9 3.3 5.9 12.2 21.1 15.5 26.5.5.8 3 5.1 5.7 9.5 23.9 39.6 52.2 81.3 81.1 119.9 7.4 9.8 14 18.6 14.7 19.5.7.9 5.8 7.3 11.4 14.3 5.5 6.9 10.8 13.6 11.8 14.8 3.4 4 4.8 5.8 8.3 10.1 1.9 2.3 5.3 6.3 7.5 8.9 2.2 2.6 6.3 7.4 9 10.6 34.2 40.2 85.1 92.7 125.5 129.4 5.2 4.7 10.4 9.4 11.6 10.5 3.7 3.4 14.6 13 19.9 17.5 2.8 2.3 6.4 5.4 8 6.8 21.9 19.2 70.4 57.1 99.5 77.9 35.6 25.4 103.8 69.5 111.3 72 .9.3 1.7.9 1.7 1.4 0 .5.4.9 1 .9.5 0 3.3 1.4 6.2 3.1 6.3 3.7 28.2 16.1 35.3 19.9 2.8 1.5 8.9 4.8 13.6 7.3 30.8 16.5 89.5 44.4 118.6 56.2 4.8 2 10.2 4.2 11.8 5 13 5.8 66 25.7 90 33.7 34.7 11.5 87.5 27.2 101.5 30.2 1.4.3 6.1 1.5 10.5 2.7 4.4 1.1 10.7 2.7 14 3.4 3.3.8 10.7 2.5 16.5 3.9 11.1 2.6 30 6.7 38 8.2 1.4.3 7 1.4 12.5 2.4 5.5 1.1 11.4 2.2 13 2.5 1.7.3 4.1.7 5.5 1 5.3 1 44.7 7.4 49 8 2.5.3 7.7 1 11.5 1.5 9.6 1.4 13.1 1.8 19.5 2.5 3 .3 6.4.8 7.5 1 1.1.2 4.7.6 8 1 3.3.3 7.8.8 10 1 10.4 1.2 16.6 1.8 30 3 5.6.5 15 1.2 27.5 2 4.7.3 11.2.8 14.5 1 38.5 2.7 135.7 2.7 173.5 0 2.5-.1 9.7-.6 16-.9 6.3-.4 12.9-.8 14.5-1 1.7-.2 6.8-.7 11.5-1.1 4.7-.4 9.9-.8 11.5-.9 1.7-.2 6.6-.6 11-1s8.7-.9 9.5-1.1c.8-.2 4.5-.6 8.1-1 3.6-.3 7.6-.7 9-1 1.3-.2 5.1-.6 8.4-1 3.3-.3 6.7-.8 7.5-1 .8-.2 3.8-.6 6.5-.9 7.2-.8 33.1-4.5 39-5.6 2.8-.5 6.4-1.2 8-1.4 16.9-2.7 18.3-3 32.5-5.7 5.8-1.1 11.6-2.3 13-2.5 2.7-.5 25.5-5.3 28-5.9 2.7-.6 16.4-3.7 20.5-4.6 2.2-.4 13-3.1 24-5.9 11-2.8 21.8-5.6 24-6.1 7.7-1.9 45.8-13.1 63.5-18.7 24.2-7.6 79.3-27.1 88.5-31.2 1.7-.8 10.5-4.3 20-8 1.1-.4 2.4-.8 2.8-.8.4 0 1.8-.7 3-1.4 1.2-.8 4.5-2.2 7.2-3.3 2.8-1 7.8-3.1 11.3-4.7 3.4-1.5 6.4-2.8 6.7-2.8.2 0 3.2-1.3 6.7-2.9 3.5-1.6 14.4-6.6 24.3-11.1 30.2-13.8 69.6-33.7 97.5-49.3 6.9-3.9 14.5-8.1 17-9.5 2.5-1.4 7.7-4.4 11.5-6.7 3.9-2.2 7.7-4.4 8.5-4.8.8-.4 2.7-1.5 4.2-2.5 1.4-.9 4.8-3 7.5-4.6 4.6-2.7 7.7-4.6 23.8-14.6 7.1-4.4 56.2-36.8 58-38.3.6-.4 8-5.8 16.5-11.9 24.4-17.5 56.8-42.1 72-54.8 3-2.5 11.1-9.3 18-15 6.9-5.8 12.7-10.7 13-11 .3-.3 5.4-4.8 11.5-10 6-5.2 11.7-10.2 12.5-11 .9-.8 6.3-5.8 12.1-11 33.6-30.7 80.7-78.4 105.5-106.9 1.6-1.8 4-4.5 5.4-6 3.5-3.8 7.7-8.6 13.5-15.6 2.8-3.2 5.7-6.6 6.5-7.5.8-.9 3.3-3.8 5.5-6.5 2.2-2.6 6.3-7.6 9.1-10.9 2.8-3.4 9.7-12 15.3-19.1 5.6-7.2 10.9-13.8 11.7-14.8.8-1 7.5-9.8 14.8-19.5 35.1-46.8 69.3-98.6 100.7-153 3.8-6.7 19.2-34.6 23.9-43.7 10.3-19.4 37-73.6 37-75 0-.2 1.8-4.1 3.9-8.7 9.9-21.1 33-77.5 41.6-101.8 15.3-43.2 21.7-63.3 33-102.6 5.9-20.6 17.7-66.9 19-74.1.3-1.8.9-4.3 1.5-5.7.5-1.5.8-2.6.5-2.6-.2 0 .1-1.5.6-3.3.5-1.7 1.2-4.4 1.4-6 .3-1.5 1.2-6 2.1-10 1.5-7.2 1.9-9 2.8-13.7.2-1.4 1.6-8.6 3-16 3.1-16.5 5.1-27.9 8.1-47 .9-5.4 3.4-22.8 4-27.5.3-2.8.8-6.1 1-7.5.9-5.8 3.7-30.1 5-43.5.3-3.3.8-8 1.1-10.5.2-2.5.7-7.7.9-11.5.3-3.9.7-8.8 1-11.1.2-2.2.7-9 1-15 .4-6 .8-12.9 1-15.4 2.6-34.9 2.6-148.8 0-174-.2-1.9-.6-8.5-.9-14.5-.4-6.1-.8-12.1-1.1-13.5-.2-1.4-.7-7-1-12.5-.3-5.5-.8-11.4-1-13-.2-1.7-.7-5.9-1-9.5-.6-6.8-1.3-13.1-2-19-.3-1.9-.7-5.8-1-8.5-1-8.7-5.2-40-5.9-44.5-.6-3.1-2.7-16.8-3-19.5-.2-1.1-.6-3.4-.9-5-.4-1.7-.9-4.6-1.2-6.5-.3-1.9-1-6-1.5-9s-1.2-7-1.5-8.9c-1.2-7.1-6.8-34.3-10.2-49.6-1.9-8.8-3.9-17.8-4.3-20-.5-2.2-2.7-11.2-4.9-20-27.1-107.5-64-207.5-112-303.5-15.1-30.1-27.9-54.2-37.8-70.8-2.4-4.1-4.3-7.5-4.3-7.7 0-.2-2.4-4.3-5.2-9.2-2.9-4.8-5.7-9.6-6.3-10.5-.5-1-3.2-5.4-6-9.9-2.7-4.5-5.9-9.7-7-11.5-6.8-11.2-11.6-18.6-27.2-41.9-20.5-30.7-43.1-62.5-55-77.5-.6-.8-6.5-8.3-12.9-16.5-10.4-13.2-25.8-32.2-32-39.5-1.2-1.4-6.8-7.9-12.4-14.5-5.7-6.6-13.8-15.8-18.1-20.5-4.2-4.7-8.7-9.6-9.9-11-9.7-11.3-53.5-55.9-74.1-75.5-21.9-20.7-46.6-42.9-60.5-54.4-1.6-1.3-5.6-4.7-8.9-7.6-52.2-44.8-130.7-100.4-196.5-139.2-9.6-5.7-18.2-10.8-19-11.3-2.5-1.5-18.4-10.5-19.5-10.9-.5-.2-4.4-2.3-8.5-4.6-15.5-8.7-22.1-12.1-46-24.1-31.4-15.6-49.6-24.2-74.5-34.9-6-2.6-12.8-5.5-15-6.5-5.8-2.6-50.5-20.2-60.5-23.8-4.7-1.7-12.8-4.6-18-6.5-11.2-4.1-38.5-13.2-52-17.5-8.6-2.7-14.9-4.6-34-10.2-29.6-8.7-70-18.7-105-26.1-5.2-1.1-10.2-2.2-11-2.4-.8-.1-6.9-1.3-13.5-2.4-6.6-1.2-13.8-2.6-16-3.1-2.2-.5-6.9-1.4-10.5-2-3.6-.5-7.4-1.2-8.5-1.4-1.9-.4-21.8-3.5-26-4.1-10.9-1.5-33.9-4.6-37.5-5-2.5-.3-7.9-1-12-1.5-9.3-1.1-15.9-1.9-23-2.5-3-.3-7.5-.7-10-1-5.1-.6-11.4-1.1-24.5-2-4.9-.3-10.8-.8-13-1-2.2-.2-9.4-.6-16-1-6.6-.3-15.6-.8-20-1.1-8.7-.6-112.2-1.4-112.7-.9zm82.2 151c15.1.3 29.8.8 32.5.9 2.8.2 10.4.7 17 1 6.6.4 13.3.9 15 1.1 1.6.2 7.1.7 12.1 1 5 .3 10.2.8 11.5 1 1.3.2 6 .6 10.4 1 4.4.3 9.2.8 10.8 1 1.5.2 5.5.6 9 1 3.4.3 7.3.8 8.7 1 1.4.3 4.8.7 7.5 1 2.8.3 6.1.7 7.5 1 1.4.2 4.8.6 7.5 1 2.8.3 5.7.8 6.5 1 .8.2 4 .6 7.1 1 3.1.3 6.5.7 7.5.9 3.7.7 10.9 1.9 12.9 2.2 2.1.2 18.3 3.1 22.5 3.9 2.2.4 8.4 1.6 16.7 3.1 9.6 1.8 42.1 8.9 54.8 12 5.5 1.4 11 2.7 12.2 3 1.2.2 9.8 2.5 19 5 9.3 2.5 19.3 5.2 22.3 6 3 .8 6.2 1.7 7 1.9 7.6 2 44.4 13.8 59.5 19 10.5 3.7 19.5 6.7 20 6.9.6.1 2.7 1 4.9 1.9 2.1.9 4.1 1.7 4.4 1.7 1.2 0 38.1 14.4 53.7 21 48.7 20.5 101.1 46.1 139.4 68.2 4.6 2.6 8.5 4.8 8.7 4.8.2 0 3.3 1.8 6.9 4 3.6 2.2 6.8 4 7.1 4 .2 0 1.7.8 3.2 1.9 1.5 1 9.2 5.8 17.2 10.6 37.1 22.6 87.2 57.2 123 85.2 11.2 8.8 33.9 27.1 36.5 29.4 1.7 1.5 8 6.9 14 12 6.1 5.1 11.7 10 12.6 10.8.9.9 4.9 4.5 9 8.1 29.7 26.2 82.7 79.2 104.1 104.3 1.1 1.2 3.4 3.8 5.1 5.7 1.8 1.9 5.9 6.6 9.2 10.5 3.3 3.8 6.2 7.2 6.5 7.5 1.1 1 19.7 23.6 28 34 4.6 5.8 10 12.5 12 15 16.9 21.2 57.7 79.2 72.7 103.6.7 1 3.1 5 5.5 8.9 2.3 3.8 5.2 8.4 6.5 10.1 1.3 1.7 2.3 3.4 2.3 3.8 0 .4 1.5 3 3.3 5.9 3.9 6.1 23.7 40.5 28.2 49.2 1.8 3.3 5.1 9.6 7.5 14 19.8 36.8 44.5 90.6 60.7 132 3 7.7 5.8 14.9 6.3 16 3.1 6.7 18.8 52.2 27.8 80.5 11.2 34.9 28.7 104.6 34.6 137.5 1.2 6.5 2.6 14.1 3.1 16.5.3 1.4.7 3.6 1 5 1 6.2 3.5 20.9 4.1 24.4.3 2.1.8 4.8 1 6 .2 1.1.7 4.8 1 8.1.3 3.3.8 6.2.9 6.5.2.3.7 3.3 1 6.5.4 3.3.9 6.7 1 7.5.2.9.6 4.3 1 7.5.4 3.3.8 7.1 1 8.5.2 1.4.7 5 1 8 .3 3 .7 7.1 1 9 .2 1.9.7 6.4 1 10 .4 3.6.8 8.1 1 10 .6 6.3 1.5 16.3 2 24.5.3 4.4.7 10.7 1 14 .5 6.6 1.5 26.3 2 42.5.5 13.4.5 77.8 0 89-.7 16.9-1.6 36.6-1.9 41-1.4 18.5-1.9 25-2.2 28-.2 1.9-.6 6.9-.9 11-.3 4.1-.8 9.1-1 11-.2 1.9-.7 6-1 9-.3 3-.8 7.1-1 9-.3 1.9-.7 5.7-1 8.5-.6 5.3-2.4 19.3-3 23.5-.2 1.4-.9 6.1-1.5 10.5-.9 6.6-4.8 30-7.5 45.5-.3 1.9-.8 4.6-1 6-.2 1.4-1.4 7-2.5 12.5-1.2 5.5-2.4 11.3-2.7 13-.2 1.6-2 10-4 18.5-1.9 8.5-3.6 16.2-3.8 17-.2.8-.8 3.5-1.5 6s-1.3 5.2-1.5 6c-1.9 10-13.5 51.6-21.5 77.5-11.4 36.6-31.5 91.9-42.6 117-.7 1.6-2.5 5.9-4 9.5-1.4 3.6-4.2 9.8-6 13.8-1.9 4.1-3.4 7.6-3.4 7.8 0 2.8-40.6 84.3-48 96.4-.5.8-3.9 6.9-7.6 13.5-3.7 6.6-7.5 13.3-8.4 15-2.8 4.9-17.1 28.7-19.5 32.5-1.2 1.9-7.1 11.1-13.1 20.5-5.9 9.3-11.1 17.2-11.4 17.5-.3.3-1.6 2.1-2.8 4l-2.2 3.5.5-8.5c.3-4.7.8-10.3 1-12.5 2.6-25.7 2.6-132.4 0-157-.2-2.2-.7-7.8-1-12.5-.6-9.4-1.4-18.4-2-24.5-.3-2.2-.7-6.7-1-10-.3-3.3-.8-7.4-1-9-.2-1.7-.6-5.3-1-8-.3-2.8-.8-6.4-1-8-.2-1.7-.7-5.6-1-8.8-.4-3.2-.8-6.8-1.1-8-.2-1.2-.7-4.2-1-6.7-.3-2.5-1.2-8.6-2-13.5-.8-5-1.9-11.5-2.4-14.5-3.4-20.9-9.1-48.7-15-73.5-2.2-9.4-4.3-17.9-4.5-18.9-1.6-7.1-10.4-38.3-14.6-52.3-12.4-41.1-31.6-93.4-47.1-128.3-11.2-25.3-34.5-73-43.2-88.6-1.3-2.3-4.5-8.1-7.2-13-18.6-33.5-36.1-61.5-64.5-102.9-1.9-2.8-3.6-5.2-3.9-5.5-.3-.3-1.7-2.1-3-4-2.9-4.3-28.3-38.1-30.9-41.2-1-1.3-6.3-7.7-11.7-14.4-9.3-11.3-17.2-20.8-21.9-26-1.1-1.2-3.9-4.4-6.1-7.1-7-8-8.2-9.4-18.2-20.3-11-11.9-48.1-49.2-58.7-59-12.4-11.4-24.8-22.5-33-29.6-4.4-3.8-8.2-7.1-8.5-7.4-.4-.4-17.6-14.4-23-18.7-.8-.6-3.5-2.8-6-4.8-6.6-5.3-6.5-5.2-19.5-15.1-29.1-22-65.9-46.9-95.3-64.5-26-15.6-47.1-27.2-75.2-41.3-18.3-9.1-25.8-12.7-46-21.8-16.2-7.4-45.8-19.4-65.5-26.6-14.8-5.4-48.2-16.6-54-18.2-1.6-.4-10.2-2.9-19-5.5s-16.7-4.8-17.5-5c-.8-.2-7.1-1.7-14-3.5s-13.2-3.3-14-3.5c-.8-.2-6.7-1.6-13-3-6.3-1.5-12.4-2.9-13.5-3.1-1.1-.2-5.5-1.1-9.8-2-4.2-.8-9-1.7-10.5-2-1.5-.2-4.9-.9-7.7-1.4-2.7-.6-6.1-1.2-7.5-1.5-1.4-.3-3.6-.7-5-1-2.3-.5-4.1-.7-14-2.1-1.9-.2-6-.9-9-1.4-3-.5-7.3-1.2-9.5-1.5-2.2-.3-7.6-.9-12-1.5s-8.9-1.2-10-1.4c-1.1-.2-5.1-.7-9-1-3.8-.3-8.6-.8-10.5-1.1-1.9-.2-6.4-.6-10-1-3.6-.3-9-.8-12-1-38.1-3.6-115.1-4.1-159.5-1.1-12.8.9-23.4 1.8-26.5 2.1-1.9.2-5.9.7-8.7 1-2.9.3-7.7.7-10.5 1-6.9.8-10.5 1.2-20.8 2.6-4.7.6-9.8 1.3-11.5 1.5-1.6.2-6.4.9-10.5 1.5-4.1.7-8.4 1.3-9.5 1.5-5.5.8-10.9 1.7-20 3.4-5.5 1-11.6 2.2-13.5 2.5-1.9.3-5.3 1-7.5 1.5s-5.4 1.1-7.1 1.4c-4.8.9-37.3 8.3-44 10.1-3.2.9-6.7 1.8-7.8 2-1 .3-4.4 1.2-7.5 2.1-3.1.9-6.3 1.7-7.2 1.9-6.8 1.3-66.5 20.1-74.4 23.5-1.1.4-6 2.2-11 4-4.9 1.7-10.3 3.7-12 4.4-1.6.7-4.6 1.9-6.5 2.6-7.9 3-43 17.8-56 23.6-12.2 5.4-53.5 26.1-67.4 33.8-7.6 4.2-14.3 7.6-14.7 7.6-.5 0-.9.4-.9.8s-1.2 1.3-2.7 1.9c-1.6.6-4.1 2-5.8 3-1.6 1-9.9 6-18.5 11.2-28.5 17.1-71.1 45.4-84 55.8-.8.6-9.6 7.4-19.5 14.9-9.9 7.6-18.2 14-18.5 14.4-.3.3-4.1 3.5-8.5 7-38.1 30.6-80.4 70.9-125 119.4-1 1-23.4 27.1-28.9 33.6-12.9 15.2-42.7 54.1-53.6 70-.8 1.2-2.2 3.2-3.1 4.4-6.4 8.5-38.3 57.3-42.5 65.1-1 1.8-8 13.7-10.4 17.5-.5.8-4.4 7.8-8.6 15.5-4.3 7.7-8.3 14.7-9 15.5-.7.8-1.3 1.9-1.4 2.5-.1.5-2.6 5.5-5.5 11-11.2 20.8-27.7 55.6-39.2 82.5-32.5 76.2-55.5 150.7-72.8 235.5-.7 3.3-5.6 30.8-6 33.5-.2 1.4-1.5 9.9-2.9 19-2.5 16.3-2.9 19.8-4.2 29.5-.3 2.7-.8 5.8-.9 6.7-.2.9-.7 4.9-1 8.9-.4 4-.8 8-1 8.9-.2.9-.6 5.2-1 9.6-.3 4.3-.8 9.9-1 12.4-.2 2.5-.7 8.3-1 13-.3 4.7-.7 10.3-1 12.5-2.7 25.4-2.7 121.6 0 157 .3 3.3.7 9 1 12.7.3 3.8.7 10.1 1 14 .3 4 .8 8.9 1.1 10.8.3 2.2.1 3.1-.5 2.5-1.5-1.6-31.2-46.2-37.1-55.8-3-4.9-6.4-10.3-7.5-12-7-10.8-26.7-45-37.3-64.7-1.9-3.6-4.7-8.8-6.2-11.5-3.6-6.5-22.4-44-26.5-53-9.7-21-13.9-30.1-16-35-3.5-8-12.9-30.4-17.5-42-16.8-42-35.3-97.4-46.9-140.3-3.9-14.4-12.5-48.3-13.5-53.2-.3-1.4-1.2-5.7-2.1-9.5-.9-3.9-1.8-8.1-2.1-9.5-.3-1.4-1.4-6.8-2.5-12-2.9-13.8-4.7-23.7-7.4-39.5-1.3-7.7-2.6-15.4-2.9-17-.3-1.7-1.2-8-2.1-14-.9-6.1-1.8-12.1-2-13.5-.5-3.4-2-15-3-23.5-.3-2.8-.8-6.1-1-7.5-.2-1.4-.6-5.7-1-9.5-.3-3.9-.8-8.4-1-10-.2-1.7-.7-6.6-1-11-.4-4.4-.8-9.4-1-11-.2-1.7-.7-7.1-1-12-.3-5-.8-11.7-1-15-.7-10.1-1.7-30.4-2-42-.5-13.8-.5-77.4-.1-87.5.2-4.1.7-14.7 1-23.5.4-8.8.9-18 1.1-20.5.2-2.5.6-8.6 1-13.5.6-8.7.9-12.4 2-25 .9-9.6 1.5-15.7 2-19.5.2-1.9.7-6 1-9 1-9.6 3.6-29.4 4-31 .2-.8.6-3.8.9-6.5.6-6.1 1.5-12.3 2.1-15.1.3-1.2.7-3.9 1-6 .8-5 5.4-32.3 5.9-34.9 4.2-20.7 5.7-28 6.1-30.7 2.4-13.6 16.7-70.6 23.8-94.8 10.6-36.1 23.4-74.2 36-107 4.9-12.8 16.9-42.3 19.7-48.5 5.7-12.6 9.2-20.5 9.5-21.5 2.2-6.8 40.9-84.5 44.5-89.5.7-.9 4.2-7.1 9.3-16.7 6.5-12 26.6-45.6 33.9-56.7 2.6-4.1 4.8-7.5 4.8-7.8 0-.3 24.6-37 30.8-45.9 4.6-6.6 17.6-24.8 18.9-26.4.7-.8 5.4-7.1 10.5-14s9.5-12.7 9.8-13c.3-.3 3.9-4.8 8-10 9.7-12.4 33.4-41 38-46 .8-.9 3-3.4 4.9-5.5 26.1-30.6 68.4-73.8 104.1-106.6 9.6-8.8 12.7-11.6 21.5-19.2 1.7-1.4 4.4-3.7 6-5.2 1.7-1.4 6.8-5.8 11.5-9.8 4.7-4 9-7.7 9.6-8.2.6-.6 2.8-2.4 4.9-4 2.1-1.7 4.3-3.5 4.9-4 6.2-5.6 53.2-41.6 64.6-49.5 1.9-1.4 4-2.8 4.5-3.2 5.7-4.6 45.8-31.6 60.5-40.8 11.8-7.4 39.1-24 39.5-24 .2 0 3.2-1.8 6.7-3.9 43-26.1 120.4-63.5 179.5-86.7 34.3-13.5 94.2-34.1 113.3-39 .8-.2 11.4-3.1 23.5-6.4 19.5-5.4 45.8-12.1 52.6-13.4 1.3-.2 4.7-1 7.4-1.6 2.8-.6 5.7-1.3 6.5-1.5.8-.2 3.5-.8 6-1.4 2.5-.5 5.6-1.2 7-1.4 1.4-.3 8.4-1.6 15.5-3 7.2-1.4 15.7-3.1 19-3.6 3.3-.6 7.1-1.3 8.5-1.6 1.3-.3 4-.7 6-1 2-.3 4.7-.8 6-1 1.4-.3 4.8-.8 7.5-1.1 2.8-.4 5.3-.8 5.6-1 .3-.2 3.3-.6 6.5-.9 3.2-.4 6.6-.8 7.4-1 .8-.2 3.8-.7 6.5-1.1 2.8-.3 5.9-.8 7-1 1-.2 4.9-.6 8.5-1 3.6-.3 7.2-.8 8.1-.9 2.7-.5 26.2-3.1 35.9-3.9 22-2 29.2-2.5 57-4.1 4.1-.3 19.2-.8 33.5-1.1 14.3-.4 26.1-.7 26.2-.8.2-.1 10.4.1 45.3.9z"/></svg>